<svg width="15" height="15" viewBox="0 0 15 15" fill="none" xmlns="http://www.w3.org/2000/svg">
<g clip-path="url(#clip0)">
<path d="M6.17113 7.04998C6.48241 6.89341 6.71774 6.71902 6.879 6.53056C7.1659 6.19116 7.30748 5.74112 7.30748 5.18327C7.30748 4.64041 7.1659 4.17631 6.88275 3.78721C6.41021 3.15341 5.61046 2.82901 4.47974 2.81213H0V11.9563H4.17691C4.64757 11.9563 5.08354 11.916 5.4867 11.8335C5.88986 11.7501 6.23864 11.5972 6.53397 11.3741C6.79649 11.18 7.01589 10.939 7.19028 10.655C7.46593 10.2256 7.60375 9.73895 7.60375 9.19703C7.60375 8.67199 7.4828 8.22476 7.24278 7.85723C6.99995 7.4897 6.64367 7.22062 6.17113 7.04998ZM1.84796 4.40039H3.86563C4.3091 4.40039 4.67476 4.44821 4.96166 4.5429C5.29356 4.68072 5.45951 4.96106 5.45951 5.3886C5.45951 5.77206 5.33294 6.04021 5.0826 6.19116C4.8304 6.34211 4.50318 6.41805 4.1019 6.41805H1.84796V4.40039ZM5.03854 10.2087C4.8154 10.3165 4.50131 10.3699 4.09909 10.3699H1.84796V7.9313H4.13003C4.52756 7.93412 4.83696 7.98662 5.05823 8.08507C5.45201 8.26321 5.64796 8.58948 5.64796 9.06671C5.64796 9.62925 5.44545 10.008 5.03854 10.2087Z" fill="white"/>
<path d="M13.5582 3.23877H9.58569V4.37699H13.5582V3.23877Z" fill="white"/>
<path d="M14.9383 7.7306C14.8558 7.20087 14.6739 6.7349 14.3908 6.33268C14.0804 5.87702 13.6866 5.54324 13.2075 5.33229C12.7303 5.1204 12.1931 5.01445 11.5949 5.01539C10.5908 5.01539 9.77508 5.32947 9.14409 5.95296C8.51498 6.57832 8.19995 7.47746 8.19995 8.64943C8.19995 9.89922 8.54779 10.8021 9.24722 11.3562C9.94384 11.9113 10.7483 12.1878 11.6615 12.1878C12.7669 12.1878 13.6266 11.8587 14.2407 11.2024C14.6336 10.788 14.8558 10.3802 14.9045 9.97985H13.0744C12.9685 10.1777 12.8456 10.3324 12.705 10.4449C12.45 10.6512 12.1181 10.7543 11.7112 10.7543C11.324 10.7543 10.9958 10.669 10.722 10.4993C10.2701 10.2274 10.0338 9.75108 10.0038 9.07321H14.9983C15.0058 8.4891 14.9871 8.04 14.9383 7.7306ZM10.0488 7.90593C10.1145 7.46621 10.2739 7.11743 10.527 6.8596C10.7802 6.6027 11.1383 6.47332 11.5968 6.47238C12.0196 6.47238 12.3731 6.59333 12.6609 6.83616C12.945 7.08086 13.1053 7.43621 13.1382 7.90593H10.0488Z" fill="white"/>
</g>
<defs>
<clipPath id="clip0">
<rect width="15" height="15" fill="white"/>
</clipPath>
</defs>
</svg>
