<svg width="40" height="40" viewBox="0 0 40 40" fill="none" xmlns="http://www.w3.org/2000/svg">
<g clip-path="url(#clip0)">
<path d="M32.5251 0.172729C32.2015 0.172729 31.9391 0.431863 31.9391 0.751497V0.791316H29.9797V0.751497C29.9797 0.431863 29.7173 0.172729 29.3937 0.172729C29.0702 0.172729 28.8078 0.431863 28.8078 0.751497V3.88432H28.141C27.8174 3.88432 27.5551 4.14346 27.5551 4.46309C27.5551 4.78272 27.8174 5.04186 28.141 5.04186H28.8078V19.3492H11.1918V5.04186H25.6359C25.9595 5.04186 26.2218 4.78272 26.2218 4.46309C26.2218 4.14346 25.9595 3.88432 25.6359 3.88432H11.1918V0.751497C11.1918 0.431863 10.9295 0.172729 10.6059 0.172729C10.2823 0.172729 10.0199 0.431863 10.0199 0.751497V0.791316H8.06055V0.751497C8.06055 0.431863 7.7982 0.172729 7.47461 0.172729C7.15102 0.172729 6.88867 0.431863 6.88867 0.751497V39.1045C6.88867 39.4241 7.15102 39.6832 7.47461 39.6832C7.7982 39.6832 8.06055 39.4241 8.06055 39.1045V39.0646H10.0199V39.1045C10.0199 39.4241 10.2823 39.6832 10.6059 39.6832C10.9295 39.6832 11.1918 39.4241 11.1918 39.1045V35.9716H11.8586C12.1822 35.9716 12.4445 35.7125 12.4445 35.3929C12.4445 35.0732 12.1822 34.8141 11.8586 34.8141H11.1918V20.5067H28.8077V34.8141H14.3637C14.0402 34.8141 13.7778 35.0732 13.7778 35.3929C13.7778 35.7125 14.0402 35.9716 14.3637 35.9716H28.8078V39.1045C28.8078 39.4241 29.0702 39.6832 29.3937 39.6832C29.7173 39.6832 29.9797 39.4241 29.9797 39.1045V39.0646H31.9391V39.1045C31.9391 39.4241 32.2015 39.6832 32.5251 39.6832C32.8487 39.6832 33.111 39.4241 33.111 39.1045V0.751497C33.111 0.431863 32.8487 0.172729 32.5251 0.172729ZM8.06047 11.2278H10.0198V13.1633H8.06047V11.2278ZM8.06047 17.4137H10.0198V19.3492H8.06047V17.4137ZM8.06047 26.6927H10.0198V28.6282H8.06047V26.6927ZM8.06047 29.7857H10.0198V31.7212H8.06047V29.7857ZM8.06047 34.8141V32.8786H10.0198V34.8141H8.06047ZM10.0199 37.9071H8.06055V35.9716H10.0199V37.9071ZM10.0199 25.5352H8.06055V23.5997H10.0199V25.5352ZM10.0199 22.4422H8.06055V20.5067H10.0199V22.4422ZM10.0199 16.2563H8.06055V14.3208H10.0199V16.2563ZM10.0199 10.0703H8.06055V8.13479H10.0199V10.0703ZM10.0199 6.97726H8.06055V5.04186H10.0199V6.97726ZM10.0199 3.88432H8.06055V1.94885H10.0199V3.88432ZM29.9796 1.94885H31.9391V3.88432H29.9796V1.94885ZM29.9796 14.3208H31.9391V16.2563H29.9796V14.3208ZM29.9796 17.4137H31.9391V19.3492H29.9796V17.4137ZM31.9391 37.9071H29.9796V35.9716H31.9391V37.9071ZM31.9391 34.8141H29.9796V32.8786H31.9391V34.8141ZM31.9391 31.7212H29.9796V29.7857H31.9391V31.7212ZM31.9391 28.6282H29.9797V26.6927H31.9391V28.6282ZM31.9391 25.5352H29.9797V23.5997H31.9391V25.5352ZM31.9391 22.4422H29.9797V20.5067H31.9391V22.4422ZM31.9391 13.1633H29.9797V11.2278H31.9391V13.1633ZM31.9391 10.0703H29.9797V8.13479H31.9391V10.0703ZM31.9391 6.97733H29.9797V5.04186H31.9391V6.97733Z" fill="#575757"/>
</g>
<defs>
<clipPath id="clip0">
<rect width="40" height="39.5105" fill="white" transform="translate(-0.00012207 0.172729)"/>
</clipPath>
</defs>
</svg>
