<svg width="40" height="41" viewBox="0 0 40 41" fill="none" xmlns="http://www.w3.org/2000/svg">
<g clip-path="url(#clip0)">
<path d="M13.9484 13.6973C14.1198 13.8694 14.3796 13.918 14.6016 13.8194L20 11.4201L25.3984 13.8193C25.4749 13.8534 25.5559 13.8698 25.6362 13.8698C25.789 13.8698 25.9393 13.81 26.0516 13.6972C26.223 13.525 26.2703 13.2649 26.1706 13.0434L20.5343 0.518198C20.4397 0.307964 20.2306 0.172729 20 0.172729C19.7695 0.172729 19.5603 0.307964 19.4657 0.518198L13.8294 13.0434C13.7296 13.265 13.777 13.5251 13.9484 13.6973ZM20.5859 10.398V3.48859L24.4725 12.1255L20.5859 10.398ZM19.4141 3.48859V10.398L15.5275 12.1254L19.4141 3.48859Z" fill="#575757"/>
<path d="M21.2929 14.5364V17.7887L18.59 14.1849C18.4386 13.9831 18.1751 13.9008 17.9359 13.9806C17.6966 14.0603 17.5353 14.2842 17.5353 14.5364V19.5465C17.5353 19.8701 17.7976 20.1324 18.1212 20.1324C18.4448 20.1324 18.7072 19.8701 18.7072 19.5465V16.2942L21.41 19.8981C21.5229 20.0484 21.6979 20.1324 21.8789 20.1324C21.9407 20.1324 22.0032 20.1227 22.0641 20.1024C22.3034 20.0226 22.4647 19.7987 22.4647 19.5465V14.5364C22.4647 14.2128 22.2024 13.9505 21.8788 13.9505C21.5552 13.9505 21.2929 14.2128 21.2929 14.5364Z" fill="#575757"/>
<path d="M24.4206 4.45656C30.6009 6.19109 35.2031 11.4111 36.1452 17.7552C36.1884 18.0461 36.4385 18.2551 36.724 18.2551C36.7526 18.2551 36.7817 18.253 36.8108 18.2486C37.1309 18.2011 37.3519 17.9031 37.3043 17.583C36.2945 10.7827 31.3616 5.18742 24.7372 3.32828C24.4258 3.24101 24.1022 3.42257 24.0147 3.73414C23.9273 4.04562 24.109 4.36906 24.4206 4.45656Z" fill="#575757"/>
<path d="M4.34352 20.7601C4.66711 20.7601 4.92945 20.4977 4.92945 20.1741C4.92945 19.8506 4.66711 19.5882 4.34352 19.5882H3.68813C3.94328 12.454 8.83797 6.25993 15.7677 4.40493C16.0803 4.32126 16.2659 4.00001 16.1823 3.68735C16.0986 3.37469 15.7772 3.18915 15.4647 3.27282C8.02336 5.26493 2.77148 11.9243 2.5157 19.5882H0.585938C0.262344 19.5882 0 19.8506 0 20.1741C0 20.4977 0.262344 20.7601 0.585938 20.7601H4.34352Z" fill="#575757"/>
<path d="M39.4141 19.5868H35.6565C35.3329 19.5868 35.0706 19.8491 35.0706 20.1727C35.0706 20.4963 35.3329 20.7587 35.6565 20.7587H36.3115C36.0086 29.2942 29.1215 36.1814 20.586 36.4841V35.8292C20.586 35.5056 20.3236 35.2433 20.0001 35.2433C19.6765 35.2433 19.4141 35.5056 19.4141 35.8292V36.4843C15.6869 36.3506 12.1129 34.9463 9.29333 32.4941C6.35513 29.9387 4.42373 26.4219 3.8549 22.5917C3.8074 22.2716 3.50912 22.0503 3.18927 22.0982C2.86919 22.1457 2.64826 22.4437 2.69576 22.7638C3.3056 26.8702 5.37552 30.6398 8.52427 33.3784C11.5571 36.0161 15.4042 37.5226 19.4141 37.6568V39.5868C19.4141 39.9104 19.6765 40.1727 20.0001 40.1727C20.3236 40.1727 20.586 39.9104 20.586 39.5868V37.6569C25.0393 37.5113 29.2051 35.7094 32.3708 32.5435C35.5367 29.3777 37.3386 25.212 37.4843 20.7587H39.4141C39.7377 20.7587 40.0001 20.4963 40.0001 20.1727C40.0001 19.8491 39.7377 19.5868 39.4141 19.5868Z" fill="#575757"/>
</g>
<defs>
<clipPath id="clip0">
<rect width="40" height="40" fill="white" transform="translate(0 0.172729)"/>
</clipPath>
</defs>
</svg>
