<svg width="180" height="18" viewBox="0 0 180 18" fill="none" xmlns="http://www.w3.org/2000/svg">
<path d="M4.438 13.14C3.234 13.14 2.352 12.79 1.792 12.09C1.232 11.39 0.933333 10.4707 0.896 9.332C0.886667 9.08 0.882 8.674 0.882 8.114C0.882 7.53533 0.886667 7.11533 0.896 6.854C0.924 5.734 1.22267 4.824 1.792 4.124C2.36133 3.41467 3.24333 3.06 4.438 3.06C5.642 3.06 6.52867 3.41467 7.098 4.124C7.66733 4.824 7.966 5.734 7.994 6.854C8.01267 7.37667 8.022 7.79667 8.022 8.114C8.022 8.422 8.01267 8.828 7.994 9.332C7.95667 10.4707 7.658 11.39 7.098 12.09C6.538 12.79 5.65133 13.14 4.438 13.14ZM4.438 11.936C5.138 11.936 5.66533 11.7027 6.02 11.236C6.384 10.7693 6.57533 10.1113 6.594 9.262C6.61267 8.72067 6.622 8.32867 6.622 8.086C6.622 7.82467 6.61267 7.442 6.594 6.938C6.57533 6.098 6.38867 5.44 6.034 4.964C5.67933 4.488 5.14733 4.25 4.438 4.25C3.738 4.25 3.206 4.488 2.842 4.964C2.48733 5.44 2.30067 6.098 2.282 6.938L2.268 8.086L2.282 9.262C2.30067 10.1113 2.48733 10.7693 2.842 11.236C3.206 11.7027 3.738 11.936 4.438 11.936ZM12.7507 13C12.6574 13 12.5781 12.972 12.5127 12.916C12.4567 12.8507 12.4287 12.7713 12.4287 12.678V4.838L10.1047 6.63C10.0394 6.686 9.96939 6.714 9.89472 6.714C9.81072 6.714 9.73139 6.66733 9.65672 6.574L9.29272 6.112C9.24605 6.04667 9.22272 5.98133 9.22272 5.916C9.22272 5.804 9.26939 5.71533 9.36272 5.65L12.4147 3.298C12.5174 3.23267 12.6387 3.2 12.7787 3.2H13.4927C13.5861 3.2 13.6607 3.23267 13.7167 3.298C13.7821 3.354 13.8147 3.42867 13.8147 3.522V12.678C13.8147 12.7713 13.7821 12.8507 13.7167 12.916C13.6607 12.972 13.5861 13 13.4927 13H12.7507Z" fill="#414141"/>
<path d="M163.438 13.14C162.234 13.14 161.352 12.79 160.792 12.09C160.232 11.39 159.933 10.4707 159.896 9.332C159.887 9.08 159.882 8.674 159.882 8.114C159.882 7.53533 159.887 7.11533 159.896 6.854C159.924 5.734 160.223 4.824 160.792 4.124C161.361 3.41467 162.243 3.06 163.438 3.06C164.642 3.06 165.529 3.41467 166.098 4.124C166.667 4.824 166.966 5.734 166.994 6.854C167.013 7.37667 167.022 7.79667 167.022 8.114C167.022 8.422 167.013 8.828 166.994 9.332C166.957 10.4707 166.658 11.39 166.098 12.09C165.538 12.79 164.651 13.14 163.438 13.14ZM163.438 11.936C164.138 11.936 164.665 11.7027 165.02 11.236C165.384 10.7693 165.575 10.1113 165.594 9.262C165.613 8.72067 165.622 8.32867 165.622 8.086C165.622 7.82467 165.613 7.442 165.594 6.938C165.575 6.098 165.389 5.44 165.034 4.964C164.679 4.488 164.147 4.25 163.438 4.25C162.738 4.25 162.206 4.488 161.842 4.964C161.487 5.44 161.301 6.098 161.282 6.938L161.268 8.086L161.282 9.262C161.301 10.1113 161.487 10.7693 161.842 11.236C162.206 11.7027 162.738 11.936 163.438 11.936ZM168.895 13C168.801 13 168.722 12.972 168.657 12.916C168.601 12.8507 168.573 12.7713 168.573 12.678V12.23C168.573 12.0153 168.689 11.81 168.923 11.614L171.891 8.646C172.609 8.04867 173.104 7.56333 173.375 7.19C173.645 6.80733 173.781 6.406 173.781 5.986C173.781 5.44467 173.627 5.02 173.319 4.712C173.02 4.404 172.581 4.25 172.003 4.25C171.461 4.25 171.027 4.41333 170.701 4.74C170.374 5.05733 170.173 5.482 170.099 6.014C170.08 6.126 170.033 6.21 169.959 6.266C169.893 6.31267 169.819 6.336 169.735 6.336H169.007C168.923 6.336 168.853 6.31267 168.797 6.266C168.741 6.21 168.713 6.14467 168.713 6.07C168.731 5.566 168.867 5.08533 169.119 4.628C169.371 4.16133 169.739 3.78333 170.225 3.494C170.719 3.19533 171.312 3.046 172.003 3.046C173.057 3.046 173.851 3.32133 174.383 3.872C174.924 4.41333 175.195 5.104 175.195 5.944C175.195 6.532 175.045 7.064 174.747 7.54C174.457 8.00667 174.005 8.51067 173.389 9.052L170.701 11.782H175.069C175.171 11.782 175.251 11.8147 175.307 11.88C175.372 11.936 175.405 12.0107 175.405 12.104V12.678C175.405 12.7713 175.372 12.8507 175.307 12.916C175.241 12.972 175.162 13 175.069 13H168.895Z" fill="#414141"/>
<path d="M21 8H154" stroke="#414141"/>
</svg>
