<svg width="13" height="15" viewBox="0 0 13 15" fill="none" xmlns="http://www.w3.org/2000/svg">
<path d="M6.70375 0C2.59188 0.000625 0.40625 2.635 0.40625 5.5075C0.40625 6.83938 1.15063 8.50125 2.3425 9.02812C2.6825 9.18125 2.6375 8.99438 2.93 7.87562C2.95313 7.7825 2.94125 7.70188 2.86625 7.615C1.1625 5.64437 2.53375 1.59312 6.46063 1.59312C12.1438 1.59312 11.0819 9.45687 7.44938 9.45687C6.51313 9.45687 5.81563 8.72188 6.03625 7.8125C6.30375 6.72937 6.8275 5.565 6.8275 4.78438C6.8275 2.81688 3.89625 3.10875 3.89625 5.71563C3.89625 6.52125 4.18125 7.065 4.18125 7.065C4.18125 7.065 3.23813 10.875 3.06313 11.5869C2.76688 12.7919 3.10313 14.7425 3.1325 14.9106C3.15063 15.0031 3.25438 15.0325 3.3125 14.9563C3.40563 14.8344 4.54563 13.2081 4.865 12.0325C4.98125 11.6044 5.45813 9.86687 5.45813 9.86687C5.7725 10.4344 6.67875 10.9094 7.64438 10.9094C10.5169 10.9094 12.5931 8.38438 12.5931 5.25125C12.5831 2.2475 10.0125 0 6.70375 0V0Z" fill="white"/>
</svg>
