<svg width="40" height="40" viewBox="0 0 40 40" fill="none" xmlns="http://www.w3.org/2000/svg">
<path d="M37.2972 38.6096H35.6918C35.5485 38.6096 35.411 38.5533 35.3096 38.4532C35.2082 38.3531 35.1513 38.2173 35.1513 38.0757C35.1513 37.9341 35.2082 37.7982 35.3096 37.6981C35.411 37.598 35.5485 37.5417 35.6918 37.5417H37.2972C37.4406 37.5417 37.5781 37.4855 37.6794 37.3853C37.7808 37.2852 37.8378 37.1494 37.8378 37.0078V2.8364C37.8378 2.6948 37.7808 2.55899 37.6794 2.45886C37.5781 2.35873 37.4406 2.30248 37.2972 2.30248H2.70267C2.55931 2.30248 2.42183 2.35873 2.32045 2.45886C2.21908 2.55899 2.16213 2.6948 2.16213 2.8364V37.0078C2.16213 37.1494 2.21908 37.2852 2.32045 37.3853C2.42183 37.4855 2.55931 37.5417 2.70267 37.5417H26.5567C26.7001 37.5417 26.8375 37.598 26.9389 37.6981C27.0403 37.7982 27.0972 37.9341 27.0972 38.0757C27.0972 38.2173 27.0403 38.3531 26.9389 38.4532C26.8375 38.5533 26.7001 38.6096 26.5567 38.6096H2.70267C2.27259 38.6096 1.86013 38.4408 1.55602 38.1404C1.2519 37.84 1.08105 37.4326 1.08105 37.0078V2.8364C1.08105 2.41158 1.2519 2.00416 1.55602 1.70377C1.86013 1.40338 2.27259 1.23462 2.70267 1.23462H37.2972C37.7273 1.23462 38.1398 1.40338 38.4439 1.70377C38.748 2.00416 38.9188 2.41158 38.9188 2.8364V37.0078C38.9188 37.4326 38.748 37.84 38.4439 38.1404C38.1398 38.4408 37.7273 38.6096 37.2972 38.6096Z" fill="#575757"/>
<path d="M31.908 38.6096H30.3405C30.1971 38.6096 30.0596 38.5532 29.9582 38.4528C29.8569 38.3524 29.7999 38.2162 29.7999 38.0742C29.7999 37.9322 29.8569 37.796 29.9582 37.6956C30.0596 37.5952 30.1971 37.5388 30.3405 37.5388H31.908C32.0514 37.5388 32.1889 37.5952 32.2903 37.6956C32.3916 37.796 32.4486 37.9322 32.4486 38.0742C32.4486 38.2162 32.3916 38.3524 32.2903 38.4528C32.1889 38.5532 32.0514 38.6096 31.908 38.6096Z" fill="#575757"/>
<path d="M20 8.69893C19.8567 8.69893 19.7192 8.64268 19.6178 8.54255C19.5164 8.44242 19.4595 8.30661 19.4595 8.165V1.76855C19.4595 1.62694 19.5164 1.49113 19.6178 1.391C19.7192 1.29087 19.8567 1.23462 20 1.23462C20.1434 1.23462 20.2809 1.29087 20.3822 1.391C20.4836 1.49113 20.5406 1.62694 20.5406 1.76855V8.165C20.5406 8.30661 20.4836 8.44242 20.3822 8.54255C20.2809 8.64268 20.1434 8.69893 20 8.69893Z" fill="#575757"/>
<path d="M20 38.6067C19.8567 38.6067 19.7192 38.5505 19.6178 38.4503C19.5164 38.3502 19.4595 38.2144 19.4595 38.0728V31.6763C19.4595 31.5347 19.5164 31.3989 19.6178 31.2988C19.7192 31.1986 19.8567 31.1424 20 31.1424C20.1434 31.1424 20.2809 31.1986 20.3822 31.2988C20.4836 31.3989 20.5406 31.5347 20.5406 31.6763V38.0728C20.5406 38.2144 20.4836 38.3502 20.3822 38.4503C20.2809 38.5505 20.1434 38.6067 20 38.6067Z" fill="#575757"/>
<path d="M20 27.5384C19.8567 27.5384 19.7192 27.4821 19.6178 27.382C19.5164 27.2819 19.4595 27.1461 19.4595 27.0044V12.834C19.4595 12.6924 19.5164 12.5566 19.6178 12.4564C19.7192 12.3563 19.8567 12.3 20 12.3C20.1434 12.3 20.2809 12.3563 20.3822 12.4564C20.4836 12.5566 20.5406 12.6924 20.5406 12.834V27.0044C20.5406 27.1461 20.4836 27.2819 20.3822 27.382C20.2809 27.4821 20.1434 27.5384 20 27.5384Z" fill="#575757"/>
<path d="M27.173 20.4561H12.827C12.6837 20.4561 12.5462 20.3997 12.4448 20.2993C12.3434 20.1989 12.2865 20.0627 12.2865 19.9207C12.2865 19.7787 12.3434 19.6425 12.4448 19.5421C12.5462 19.4417 12.6837 19.3853 12.827 19.3853H27.173C27.3163 19.3853 27.4538 19.4417 27.5552 19.5421C27.6566 19.6425 27.7135 19.7787 27.7135 19.9207C27.7135 20.0627 27.6566 20.1989 27.5552 20.2993C27.4538 20.3997 27.3163 20.4561 27.173 20.4561Z" fill="#575757"/>
<path d="M38.3783 20.4561H31.9026C31.7592 20.4561 31.6218 20.3997 31.5204 20.2993C31.419 20.1989 31.3621 20.0627 31.3621 19.9207C31.3621 19.7787 31.419 19.6425 31.5204 19.5421C31.6218 19.4417 31.7592 19.3853 31.9026 19.3853H38.3783C38.5216 19.3853 38.6591 19.4417 38.7605 19.5421C38.8618 19.6425 38.9188 19.7787 38.9188 19.9207C38.9188 20.0627 38.8618 20.1989 38.7605 20.2993C38.6591 20.3997 38.5216 20.4561 38.3783 20.4561Z" fill="#575757"/>
<path d="M8.09726 20.4561H1.62159C1.47823 20.4561 1.34075 20.3997 1.23938 20.2993C1.138 20.1989 1.08105 20.0627 1.08105 19.9207C1.08105 19.7787 1.138 19.6425 1.23938 19.5421C1.34075 19.4417 1.47823 19.3853 1.62159 19.3853H8.09726C8.24062 19.3853 8.37811 19.4417 8.47948 19.5421C8.58085 19.6425 8.6378 19.7787 8.6378 19.9207C8.6378 20.0627 8.58085 20.1989 8.47948 20.2993C8.37811 20.3997 8.24062 20.4561 8.09726 20.4561Z" fill="#575757"/>
<path d="M31.9032 20.4531C31.7926 20.4533 31.6847 20.4199 31.594 20.3575C31.5032 20.2952 31.434 20.2069 31.3956 20.1044C31.3573 20.002 31.3517 19.8905 31.3795 19.7848C31.4073 19.6791 31.4673 19.5844 31.5513 19.5134C32.035 19.1065 32.3807 18.5628 32.5418 17.9558C32.7028 17.3487 32.6715 16.7074 32.452 16.1185C32.2325 15.5296 31.8354 15.0213 31.3143 14.6623C30.7932 14.3033 30.1731 14.1108 29.5378 14.1108C28.9025 14.1108 28.2824 14.3033 27.7613 14.6623C27.2402 15.0213 26.8431 15.5296 26.6236 16.1185C26.4041 16.7074 26.3728 17.3487 26.5338 17.9558C26.6949 18.5628 27.0406 19.1065 27.5243 19.5134C27.5782 19.559 27.6226 19.6146 27.6548 19.6771C27.6869 19.7396 27.7063 19.8078 27.7119 19.8777C27.7174 19.9476 27.7089 20.0179 27.6869 20.0846C27.6649 20.1512 27.6299 20.213 27.5837 20.2663C27.5376 20.3196 27.4813 20.3633 27.418 20.3951C27.3547 20.4269 27.2858 20.4461 27.215 20.4516C27.1442 20.457 27.073 20.4486 27.0055 20.4269C26.938 20.4052 26.8755 20.3706 26.8216 20.325C26.17 19.7762 25.7044 19.0432 25.4876 18.2249C25.2709 17.4066 25.3134 16.5423 25.6095 15.7486C25.9055 14.9549 26.4409 14.27 27.1433 13.7862C27.8457 13.3024 28.6815 13.043 29.5378 13.043C30.3941 13.043 31.2299 13.3024 31.9323 13.7862C32.6347 14.27 33.1701 14.9549 33.4661 15.7486C33.7622 16.5423 33.8047 17.4066 33.588 18.2249C33.3712 19.0432 32.9056 19.7762 32.254 20.325C32.1562 20.4076 32.0318 20.453 31.9032 20.4531Z" fill="#575757"/>
<path d="M10.4648 26.7909C9.60849 26.7921 8.77241 26.5337 8.06949 26.0506C7.36658 25.5675 6.8307 24.8829 6.53423 24.0894C6.23775 23.2958 6.19497 22.4315 6.41165 21.6132C6.62834 20.7949 7.09405 20.062 7.7459 19.5134C7.85485 19.4214 7.99636 19.3759 8.1393 19.3869C8.28223 19.3979 8.41488 19.4645 8.50806 19.5722C8.60125 19.6798 8.64733 19.8196 8.63618 19.9607C8.62503 20.1019 8.55756 20.2329 8.4486 20.325C7.96491 20.7319 7.61921 21.2756 7.45815 21.8827C7.29709 22.4897 7.32842 23.131 7.54791 23.7199C7.7674 24.3089 8.16448 24.8171 8.6856 25.1761C9.20671 25.5352 9.82677 25.7277 10.4621 25.7277C11.0975 25.7277 11.7175 25.5352 12.2386 25.1761C12.7597 24.8171 13.1568 24.3089 13.3763 23.7199C13.5958 23.131 13.6271 22.4897 13.4661 21.8827C13.305 21.2756 12.9593 20.7319 12.4756 20.325C12.4217 20.2794 12.3773 20.2238 12.3452 20.1613C12.313 20.0988 12.2936 20.0306 12.288 19.9607C12.2825 19.8908 12.291 19.8205 12.313 19.7539C12.335 19.6872 12.37 19.6254 12.4162 19.5722C12.4623 19.5189 12.5186 19.4751 12.5819 19.4433C12.6452 19.4115 12.7142 19.3923 12.7849 19.3869C12.8557 19.3814 12.9269 19.3898 12.9944 19.4115C13.0619 19.4332 13.1244 19.4678 13.1783 19.5134C13.8298 20.0617 14.2954 20.7941 14.5122 21.6119C14.7291 22.4297 14.6867 23.2936 14.3909 24.0869C14.0951 24.8802 13.5601 25.5648 12.8581 26.0483C12.156 26.5318 11.3207 26.791 10.4648 26.7909Z" fill="#575757"/>
<path d="M22.7729 33.4757C22.1675 33.4754 21.5693 33.3454 21.0196 33.0947C20.47 32.844 19.9819 32.4785 19.5891 32.0234C19.543 31.9701 19.5079 31.9084 19.4859 31.8417C19.4639 31.775 19.4555 31.7047 19.461 31.6348C19.4665 31.5649 19.4859 31.4967 19.5181 31.4342C19.5503 31.3717 19.5946 31.3161 19.6486 31.2705C19.7025 31.225 19.765 31.1903 19.8325 31.1686C19.9 31.1469 19.9712 31.1385 20.042 31.144C20.1127 31.1494 20.1817 31.1686 20.245 31.2004C20.3083 31.2322 20.3646 31.276 20.4107 31.3293C20.8227 31.8071 21.3731 32.1485 21.9877 32.3076C22.6023 32.4667 23.2515 32.4358 23.8477 32.219C24.4439 32.0022 24.9585 31.6099 25.322 31.0952C25.6854 30.5804 25.8803 29.968 25.8803 29.3404C25.8803 28.7128 25.6854 28.1003 25.322 27.5856C24.9585 27.0709 24.4439 26.6786 23.8477 26.4618C23.2515 26.245 22.6023 26.2141 21.9877 26.3732C21.3731 26.5323 20.8227 26.8737 20.4107 27.3515C20.3175 27.4591 20.1849 27.5258 20.042 27.5368C19.899 27.5478 19.7575 27.5023 19.6486 27.4102C19.5396 27.3182 19.4721 27.1872 19.461 27.046C19.4498 26.9048 19.4959 26.765 19.5891 26.6574C20.0451 26.1301 20.628 25.7245 21.2842 25.4781C21.9404 25.2317 22.6489 25.1523 23.3443 25.2472C24.0397 25.3422 24.6998 25.6084 25.2638 26.0214C25.8277 26.4345 26.2774 26.981 26.5714 27.6107C26.8655 28.2404 26.9944 28.933 26.9464 29.6249C26.8983 30.3167 26.6749 30.9855 26.2965 31.5696C25.9182 32.1538 25.3972 32.6345 24.7814 32.9676C24.1656 33.3007 23.4749 33.4754 22.7729 33.4757Z" fill="#575757"/>
<path d="M17.227 14.6333C16.5244 14.6337 15.833 14.4593 15.2165 14.1263C14.6 13.7934 14.0783 13.3125 13.6994 12.728C13.3205 12.1436 13.0967 11.4743 13.0484 10.7819C13.0002 10.0895 13.1292 9.39629 13.4235 8.76608C13.7177 8.13586 14.1679 7.58894 14.7324 7.17571C15.2969 6.76248 15.9576 6.49623 16.6536 6.4015C17.3496 6.30677 18.0586 6.38659 18.7152 6.63363C19.3718 6.88066 19.9549 7.28696 20.4108 7.81508C20.504 7.9227 20.55 8.06248 20.5389 8.20366C20.5277 8.34484 20.4603 8.47587 20.3513 8.56791C20.2424 8.65996 20.1009 8.70548 19.9579 8.69447C19.815 8.68345 19.6823 8.6168 19.5892 8.50918C19.1772 8.03141 18.6268 7.68994 18.0122 7.53085C17.3976 7.37175 16.7484 7.4027 16.1522 7.6195C15.556 7.83631 15.0414 8.22854 14.6779 8.74328C14.3145 9.25802 14.1196 9.87049 14.1196 10.4981C14.1196 11.1256 14.3145 11.7381 14.6779 12.2528C15.0414 12.7676 15.556 13.1598 16.1522 13.3766C16.7484 13.5934 17.3976 13.6244 18.0122 13.4653C18.6268 13.3062 19.1772 12.9647 19.5892 12.4869C19.6823 12.3793 19.815 12.3127 19.9579 12.3017C20.1009 12.2906 20.2424 12.3362 20.3513 12.4282C20.4603 12.5203 20.5277 12.6513 20.5389 12.7925C20.55 12.9337 20.504 13.0734 20.4108 13.181C20.018 13.6361 19.5299 14.0016 18.9803 14.2523C18.4306 14.5031 17.8324 14.6331 17.227 14.6333Z" fill="#575757"/>
</svg>
